<?xml version="1.0" encoding="utf-8"?>
<!-- Generator: Adobe Illustrator 22.1.0, SVG Export Plug-In . SVG Version: 6.00 Build 0)  -->
<svg version="1.1" id="Layer_1" xmlns="http://www.w3.org/2000/svg" xmlns:xlink="http://www.w3.org/1999/xlink" x="0px" y="0px"
	 viewBox="0 0 704.6 215.3" style="enable-background:new 0 0 704.6 215.3;" xml:space="preserve">
<style type="text/css">
	.st0{fill:#013440;}
	.st1{fill:#007383;}
	.st2{fill:#D7DF23;}
	.st3{fill:#00575E;}
</style>
<g>
	<g>
		<g>
			<path class="st0" d="M210,63.8V94h48.4v21.4H210v49.8h-24V42.5h80.9v21.4H210z"/>
			<path class="st0" d="M281.4,60V41.8h22.9V60H281.4z M281.7,165.2V75.4h22.4v89.8H281.7z"/>
			<path class="st0" d="M373.6,99.9c-3.4-3.4-6.4-5.3-11.9-5.3c-6.9,0-14.5,5.2-14.5,16.6v54.1h-22.4V75.4h21.9V84
				c4.3-5.2,12.9-9.7,22.6-9.7c8.8,0,15,2.2,21.2,8.4L373.6,99.9z"/>
			<path class="st0" d="M411.2,127.3c0,11.6,7.1,20,19.7,20c9.8,0,14.7-2.8,20.3-8.4l13.6,13.3c-9.1,9.1-17.9,14.1-34.1,14.1
				c-21.2,0-41.6-9.7-41.6-46c0-29.3,15.9-45.9,39.1-45.9c25,0,39.1,18.3,39.1,42.9v10H411.2z M443.3,102.3c-2.4-5.3-7.4-9.3-15-9.3
				c-7.6,0-12.6,4-15,9.3c-1.4,3.3-1.9,5.7-2.1,9.7h34.1C445.2,108,444.7,105.6,443.3,102.3z"/>
			<path class="st0" d="M508.3,95.1v70.2h-22.4V95.1h-9.3V78h9.3V66.8c0-12.8,7.9-25.7,26.2-25.7h12.8v19h-8.6
				c-5.3,0-7.9,2.9-7.9,8.1V78h16.6v17.1H508.3z M566,165.2c-18.4,0-26.2-12.9-26.2-25.7V42.5h22.4v95.7c0,5.3,2.2,8.1,7.9,8.1h8.6
				v19H566z"/>
			<path class="st0" d="M624.7,179.7c-1.9,5-4,8.8-6.7,11.6c-5.2,5.2-11.9,6.9-19.3,6.9h-8.8V178h5.2c6.4,0,9-1.6,11.2-8.1l3.8-11
				l-30.7-83.5H603l18.6,55.5l17.9-55.5h23.6L624.7,179.7z"/>
		</g>
	</g>
	<g>
		<g>
			<path class="st1" d="M40.5,164.7c0,0,4,0,5.3,0c8.7,0,16.6-3.8,22.6-9.7c7.1-7,11.6-17,11.6-27.2v-48H40.5V164.7z"/>
			<path class="st1" d="M80,40.3v39.5h48.2c11.8,0,23.2-6,30-15.1c4.1-5.5,6.6-12,6.6-19.1c0-1.3,0-5.3,0-5.3H80z"/>
		</g>
		<g>
			<polygon class="st1" points="93.6,123.9 84.5,123.9 84.5,84.3 124.1,84.3 124.1,93.4 			"/>
		</g>
	</g>
	<polygon class="st2" points="124.1,123.9 99.3,123.9 124.1,99.4 	"/>
</g>
<rect x="40.5" y="40.3" class="st3" width="39.5" height="39.5"/>
</svg>
