<?xml version="1.0" encoding="UTF-8" standalone="no"?>
<!DOCTYPE svg PUBLIC "-//W3C//DTD SVG 1.1//EN" "http://www.w3.org/Graphics/SVG/1.1/DTD/svg11.dtd">
<svg version="1.1" xmlns="http://www.w3.org/2000/svg" xmlns:xlink="http://www.w3.org/1999/xlink" preserveAspectRatio="xMidYMid meet" viewBox="0 0 640 640" width="640" height="640"><defs><path d="M154.36 431.09C165.93 420.08 223.79 365.03 327.93 265.93C424.91 372.05 478.78 431.01 489.56 442.8C515.97 471.12 560.43 472.67 588.75 446.26C592.3 442.73 610.04 425.09 641.97 393.33L430.59 170.2L331.56 64L2.36 370.99L55.17 427.63C102.42 447.54 135.48 448.7 154.36 431.09Z" id="eEbtGugxZ"></path><path d="M316.97 576.57C316.97 576.57 316.97 576.57 316.97 576.57C255.35 510.49 221.11 473.78 214.27 466.44C214.27 466.44 214.27 466.44 214.27 466.44C280.35 404.82 317.06 370.58 324.4 363.74C324.4 363.74 324.4 363.74 324.4 363.74C386.02 429.82 420.25 466.53 427.1 473.87C427.1 473.87 427.1 473.87 427.1 473.87C361.02 535.49 324.31 569.72 316.97 576.57Z" id="fv3TY989"></path></defs><g><g><g><use xlink:href="#eEbtGugxZ" opacity="1" fill="#d6de23" fill-opacity="1"></use><g><use xlink:href="#eEbtGugxZ" opacity="1" fill-opacity="0" stroke="#000000" stroke-width="1" stroke-opacity="0"></use></g></g><g><use xlink:href="#fv3TY989" opacity="1" fill="#d6de23" fill-opacity="1"></use><g><use xlink:href="#fv3TY989" opacity="1" fill-opacity="0" stroke="#000000" stroke-width="1" stroke-opacity="0"></use></g></g></g></g></svg>